#format: frame checksums
#version: 1
#hash: MD5
#tb 0: 1/25
#stream#, dts,        pts, duration,     size, hash
0,          0,          0,        1,   301024, 44de62472f485410819707c44b53f276
0,          1,          1,        1,   301036, ff3c28c23b15834a84c57b304610924f
0,          2,          2,        1,   300812, 72f02a697464f5fdd54ae2e054c131d1
0,          3,          3,        1,   300876, 8879becf8b3d5001b196f45b7817ef6b
0,          4,          4,        1,   300880, 2edeed55c4d84dea1fc9386553d7503f
0,          5,          5,        1,   300904, f799f26eae30e1796bd62f9cdbcb2b17
0,          6,          6,        1,   300908, bc606ee3ab284d3567a3fbd476d674f0
0,          7,          7,        1,   301012, 404f55be9ec860a1ab3d15711965c9ba
0,          8,          8,        1,   301048, 112394db28656101b4e8ba3621b437ae
0,          9,          9,        1,   301008, 8945bb7668b4a529844e68e1f6b6522b
0,         10,         10,        1,   300908, a9097c5f0bd7ddea711a25aa74696f70
0,         11,         11,        1,   300876, 579de317d166295088530c78f403611d
0,         12,         12,        1,   301012, d97e3627c494012d6167a30ec8192360
0,         13,         13,        1,   300928, fd20066b7f31363751328aefedfae04c
0,         14,         14,        1,   300836, d9bdd5606f4426b503f19a674e8058a3
0,         15,         15,        1,   300848, 6c8f2cbd75646592876f8138a017c1ce
0,         16,         16,        1,   300988, 54e19940011b3bfed809a0edc12c3dd7
0,         17,         17,        1,   301040, b1d5f39215f305953a846fb01dbc2f24
0,         18,         18,        1,   301164, 9dde74f0ee3626eeea41c538fd80e1fb
0,         19,         19,        1,   301196, fdf22d2c35c7ab72416a268bf6612650
0,         20,         20,        1,   301148, 275261bc1c1dec0bf712dcf05213def2
0,         21,         21,        1,   301144, 66ccea6fce9d6d7016dafb3b349fa163
0,         22,         22,        1,   301080, d6dc6ce0708dfdf74e936271a98c19e9
0,         23,         23,        1,   301028, 48e610b9d798e0642825919fab233524
0,         24,         24,        1,   301100, aed8f8f0a9d96ab9906ea8175e18c9ff
0,         25,         25,        1,   301116, fe9e1eccb9ccc92b4041228ea2c56c8e
0,         26,         26,        1,   301052, 3ec2f76b41fd8a6eafaa6bb14b94c153
0,         27,         27,        1,   301200, 60d608bbe0ca285a7d8a1a4822a84c4d
0,         28,         28,        1,   301120, 6d2cec50ee32e76eb6dff76a4976d221
0,         29,         29,        1,   301188, 8faa69fd62e0646e4eb85c1601827364
0,         30,         30,        1,   301192, eb1fa109c5e9b89f29be7cf363649acd
0,         31,         31,        1,   301128, 32ba1797f5dee6643712688621984326
0,         32,         32,        1,   301088, a1bfa70314c40f60a0823beef74e233e
0,         33,         33,        1,   301064, b18d84efa0091199dd9167bbdb36b873
0,         34,         34,        1,   300964, a2ae8d3dd655403bcfdace40aaa1d78b
0,         35,         35,        1,   301124, 8ece60df0f0ef4f3d887eac16c23cad6
0,         36,         36,        1,   301200, 13eb4b5ec7471837aadce38848e48cb2
0,         37,         37,        1,   301196, b5fdef211755134f8e7998793a0ab0c0
0,         38,         38,        1,   301260, 2f7e2046bae9e664e74bc56a3596743c
0,         39,         39,        1,   301264, 2cfc013c9e66a5dd0229c6551febd658
0,         40,         40,        1,   301272, 47e8ff02a8f054c66687e2b613e46cf5
0,         41,         41,        1,   301236, f4d766155eeeb7b03687a3141840bf32
0,         42,         42,        1,   301312, 8fe134aefc02b6910dc2054447fd9c37
0,         43,         43,        1,   301272, 9ec57db275fca2b596734c48a50c28bc
0,         44,         44,        1,   301256, 17bae207d8d6f5b2b500885e3058185f
0,         45,         45,        1,   301308, 9f8e91f3fbbdd0ca17b2ad0ffe888d5a
0,         46,         46,        1,   301400, 8184e55eb5432516547df512175c15fc
0,         47,         47,        1,   301408, dd0c0aa1426427549e9cbb22ef82f930
0,         48,         48,        1,   301424, c65025dc3fa21fad98118ab0386b910e
0,         49,         49,        1,   301408, 2982b49e94aa25b8ef30f81769650f15
